HIERARCHY
ROOT hip
{
	OFFSET 0.000000 0.000000 0.000000
	CHANNELS 6 Xposition Yposition Zposition Xrotation Zrotation Yrotation 
	JOINT abdomen
	{
		OFFSET 0.000000 3.422050 0.000000
		CHANNELS 3 Xrotation Zrotation Yrotation 
		JOINT chest
		{
			OFFSET 0.000000 8.486693 -0.684411
			CHANNELS 3 Xrotation Zrotation Yrotation 
			JOINT neck
			{
				OFFSET 0.000000 10.266162 -0.273764
				CHANNELS 3 Xrotation Zrotation Yrotation 
				JOINT head
				{
					OFFSET 0.000000 3.148285 0.000000
					CHANNELS 3 Xrotation Zrotation Yrotation 
					End Site
					{
						OFFSET 0.000000 3.148289 0.000000
					}
				}
			}
			JOINT lCollar
			{
				OFFSET 3.422053 6.707223 -0.821293
				CHANNELS 3 Yrotation Zrotation Xrotation 
				JOINT lShldr
				{
					OFFSET 3.285171 0.000000 0.000000
					CHANNELS 3 Zrotation Yrotation Xrotation 
					JOINT lForeArm
					{
						OFFSET 10.129278 0.000000 0.000000
						CHANNELS 3 Yrotation Zrotation Xrotation 
						JOINT lHand
						{
							OFFSET 8.486692 0.000000 0.000000
							CHANNELS 3 Zrotation Yrotation Xrotation 
							End Site
							{
								OFFSET 4.106464 0.000000 0.000000
							}
						}
					}
				}
			}
			JOINT rCollar
			{
				OFFSET -3.558935 6.707223 -0.821293
				CHANNELS 3 Yrotation Zrotation Xrotation 
				JOINT rShldr
				{
					OFFSET -3.148289 0.000000 0.000000
					CHANNELS 3 Zrotation Yrotation Xrotation 
					JOINT rForeArm
					{
						OFFSET -10.266159 0.000000 0.000000
						CHANNELS 3 Yrotation Zrotation Xrotation 
						JOINT rHand
						{
							OFFSET -8.349810 0.000000 0.000000
							CHANNELS 3 Zrotation Yrotation Xrotation 
							End Site
							{
								OFFSET -4.106464 0.000000 0.000000
							}
						}
					}
				}
			}
		}
	}
	JOINT lThigh
	{
		OFFSET 5.338403 -1.642589 1.368821
		CHANNELS 3 Xrotation Zrotation Yrotation 
		JOINT lShin
		{
			OFFSET -2.053232 -20.121670 0.000000
			CHANNELS 3 Xrotation Zrotation Yrotation 
			JOINT lFoot
			{
				OFFSET 0.000000 -19.300380 -1.231939
				CHANNELS 3 Xrotation Yrotation Zrotation 
				End Site
				{
					OFFSET 0.000000 -2.463878 4.653993
				}
			}
		}
	}
	JOINT rThigh
	{
		OFFSET -5.338403 -1.642589 1.368821
		CHANNELS 3 Xrotation Zrotation Yrotation 
		JOINT rShin
		{
			OFFSET 2.053232 -20.121670 0.000000
			CHANNELS 3 Xrotation Zrotation Yrotation 
			JOINT rFoot
			{
				OFFSET 0.000000 -19.300380 -1.231939
				CHANNELS 3 Xrotation Yrotation Zrotation 
				End Site
				{
					OFFSET 0.000000 -2.463878 4.653993
				}
			}
		}
	}
}
MOTION
Frames: 18
Frame Time: 0.033333
0.000000 43.528500 0.000000 0.000000 0.000000 0.000000 0.000000 0.000000 0.000000 0.000000 0.000000 0.000000 0.000000 0.000000 0.000000 0.000000 0.000000 0.000000 0.000000 0.000000 0.000000 0.000000 0.000000 0.000000 0.000000 0.000000 0.000000 0.000000 0.000000 0.000000 0.000000 0.000000 0.000000 0.000000 0.000000 0.000000 0.000000 0.000000 0.000000 0.000000 0.000000 0.000000 0.000000 0.000000 0.000000 0.000000 0.000000 0.000000 0.000000 0.000000 0.000000 0.000000 0.000000 0.000000 0.000000 0.000000 0.000000 0.000000 0.000000 0.000000 
7.998947 1.995800 7.998947 -164.020111 73.996956 -0.011211 83.998894 0.000000 0.000000 19.998167 0.000000 0.000000 30.999151 0.000000 0.000000 -35.000443 0.000000 0.000000 0.000000 0.000000 0.000000 104.384666 -87.989586 -150.387848 -146.009583 5.002226 -20.002827 47.998577 6.999033 29.996231 17.997807 8.999632 0.999454 72.997787 54.001511 29.996616 5.999485 4.996978 0.998127 40.998127 -20.001020 0.996610 11.997409 16.999352 18.997087 65.996140 -5.000502 -0.004129 2.999194 -0.003497 -1.002185 -62.024689 -60.010677 30.022503 134.993393 -0.000002 0.000001 20.996786 0.000000 0.000000 
7.998947 1.995800 7.845064 -164.020126 73.996971 -0.011213 83.998901 0.000000 0.000000 19.998169 0.000000 0.000000 30.999155 0.000000 0.000000 -35.000443 0.000000 0.000000 0.000000 0.000000 0.000000 104.384651 -87.989609 -150.387817 -146.009583 5.002226 -20.002827 47.998577 6.999033 29.996235 17.997807 8.999632 0.999454 72.997787 54.001511 29.996616 4.924582 4.997165 0.998042 40.998127 -20.001020 0.996611 12.720933 16.571871 19.498484 64.998001 -5.000544 -0.003915 2.999194 -0.003497 -1.002185 -62.331371 -60.009983 30.021505 134.993408 -0.000002 0.000001 20.996786 0.000000 0.000000 
7.998947 1.995800 7.691181 -164.020111 73.996925 -0.011210 83.998894 0.000000 0.000000 19.998165 0.000000 0.000000 30.999151 0.000000 0.000000 -35.000443 0.000000 0.000000 0.000000 0.000000 0.000000 104.384682 -87.989555 -150.387878 -146.009567 5.002226 -20.002825 47.998569 6.999032 29.996227 17.997807 8.999631 0.999454 72.997787 54.001511 29.996616 3.848633 4.997354 0.997960 40.998127 -20.001019 0.996611 13.439397 16.138113 19.993433 63.999023 -5.000583 -0.003701 2.999193 -0.003497 -1.002185 -62.638046 -60.009293 30.020494 134.993393 -0.000002 0.000001 20.996786 0.000000 0.000000 
7.998947 1.995800 7.537298 -164.020111 73.996956 -0.011211 83.998894 0.000000 0.000000 19.998167 0.000000 0.000000 30.999151 0.000000 0.000000 -35.000443 0.000000 0.000000 0.000000 0.000000 0.000000 104.384666 -87.989586 -150.387848 -146.009567 5.002225 -20.002825 47.998577 6.999033 29.996231 17.997807 8.999632 0.999454 72.997787 54.001511 29.996616 2.771829 4.997544 0.997882 40.998127 -20.001020 0.996610 14.152744 15.698231 20.481863 62.999371 -5.000620 -0.003486 2.999194 -0.003497 -1.002185 -62.944736 -60.008579 30.019470 134.993393 -0.000002 0.000001 20.996786 0.000000 0.000000 
7.998947 1.995800 7.383415 -164.020126 73.996971 -0.011216 83.998894 0.000000 0.000000 19.998169 0.000000 0.000000 30.999151 0.000000 0.000000 -35.000443 0.000000 0.000000 0.000000 0.000000 0.000000 104.384666 -87.989586 -150.387848 -146.009583 5.002226 -20.002827 47.998581 6.999034 29.996231 17.997807 8.999632 0.999454 72.997787 54.001511 29.996616 1.694357 4.997736 0.997807 40.998127 -20.001020 0.996610 14.860936 15.252375 20.963726 61.999184 -5.000653 -0.003269 2.999194 -0.003497 -1.002185 -63.251465 -60.007893 30.018459 134.993393 -0.000002 0.000001 20.996786 0.000000 0.000000 
7.998947 1.995800 7.229532 -164.020111 73.996948 -0.011209 83.998894 0.000000 0.000000 19.998163 0.000000 0.000000 30.999151 0.000000 0.000000 -35.000443 0.000000 0.000000 0.000000 0.000000 0.000000 104.384666 -87.989586 -150.387848 -146.009583 5.002226 -20.002827 47.998577 6.999033 29.996231 17.997807 8.999632 0.999454 72.997772 54.001503 29.996611 0.616408 4.997931 0.997736 40.998127 -20.001020 0.996610 15.563938 14.800702 21.438976 60.998611 -5.000681 -0.003053 2.999193 -0.003497 -1.002185 -63.558163 -60.007195 30.017422 134.993393 -0.000002 0.000001 20.996786 0.000000 0.000000 
7.998947 1.995800 7.075649 -164.020111 73.996956 -0.011211 83.998894 0.000000 0.000000 19.998167 0.000000 0.000000 30.999151 0.000000 0.000000 -35.000443 0.000000 0.000000 0.000000 0.000000 0.000000 104.384666 -87.989586 -150.387848 -146.009583 5.002226 -20.002827 47.998577 6.999033 29.996231 17.997807 8.999632 0.999454 72.997787 54.001511 29.996616 -0.461827 4.998125 0.997669 40.998127 -20.001020 0.996610 16.261723 14.343379 21.907574 59.997818 -5.000706 -0.002836 2.999194 -0.003497 -1.002185 -63.864864 -60.006504 30.016376 134.993393 -0.000002 0.000001 20.996786 0.000000 0.000000 
7.998947 1.995800 6.921766 -164.020111 73.996956 -0.011211 83.998894 0.000000 0.000000 19.998167 0.000000 0.000000 30.999151 0.000000 0.000000 -35.000443 0.000000 0.000000 0.000000 0.000000 0.000000 104.384666 -87.989586 -150.387848 -146.009583 5.002226 -20.002827 47.998577 6.999033 29.996231 17.997807 8.999632 0.999454 72.997787 54.001511 29.996616 -1.540159 4.998320 0.997605 40.998127 -20.001020 0.996610 16.954262 13.880557 22.369478 58.996929 -5.000726 -0.002618 2.999194 -0.003497 -1.002185 -64.171585 -60.005829 30.015335 134.993393 -0.000002 0.000001 20.996786 0.000000 0.000000 
7.998947 1.995800 6.767883 -164.020111 73.996956 -0.011211 83.998894 0.000000 0.000000 19.998167 0.000000 0.000000 30.999151 0.000000 0.000000 -35.000443 0.000000 0.000000 0.000000 0.000000 0.000000 104.384666 -87.989586 -150.387848 -146.009583 5.002226 -20.002829 47.998577 6.999033 29.996235 17.997807 8.999632 0.999454 72.997787 54.001518 29.996616 -2.618396 4.998518 0.997545 40.998127 -20.001020 0.996610 17.641535 13.412401 22.824659 57.996136 -5.000743 -0.002400 2.999194 -0.003497 -1.002185 -64.478271 -60.005131 30.014277 134.993408 -0.000002 0.000001 20.996786 0.000000 0.000000 
7.998947 1.995800 6.613999 -164.020111 73.996956 -0.011211 83.998894 0.000000 0.000000 19.998167 0.000000 0.000000 30.999151 0.000000 0.000000 -35.000443 0.000000 0.000000 0.000000 0.000000 0.000000 104.384666 -87.989586 -150.387848 -146.009583 5.002226 -20.002829 47.998577 6.999033 29.996231 17.997807 8.999632 0.999454 72.997787 54.001518 29.996620 -3.696347 4.998716 0.997489 40.998127 -20.001020 0.996610 18.323538 12.939075 23.273098 56.995571 -5.000756 -0.002182 2.999194 -0.003497 -1.002185 -64.784981 -60.004471 30.013231 134.993393 -0.000002 0.000001 20.996786 0.000000 0.000000 
7.998947 1.995800 6.460116 -164.020111 73.996956 -0.011211 83.998894 0.000000 0.000000 19.998167 0.000000 0.000000 30.999151 0.000000 0.000000 -35.000443 0.000000 0.000000 0.000000 0.000000 0.000000 104.384666 -87.989586 -150.387848 -146.009583 5.002226 -20.002827 47.998577 6.999033 29.996231 17.997807 8.999632 0.999454 72.997787 54.001511 29.996616 -4.773820 4.998916 0.997436 40.998127 -20.001020 0.996610 19.000261 12.460745 23.714779 55.995377 -5.000766 -0.001964 2.999194 -0.003497 -1.002185 -65.091629 -60.003773 30.012152 134.993393 -0.000002 0.000001 20.996786 0.000000 0.000000 
7.998947 1.995800 6.306233 -164.020111 73.996956 -0.011211 83.998894 0.000000 0.000000 19.998167 0.000000 0.000000 30.999151 0.000000 0.000000 -35.000443 0.000000 0.000000 0.000000 0.000000 0.000000 104.384666 -87.989586 -150.387848 -146.009583 5.002226 -20.002827 47.998577 6.999033 29.996231 17.997807 8.999632 0.999454 72.997787 54.001511 29.996616 -5.850627 4.999114 0.997387 40.998127 -20.001020 0.996610 19.671692 11.977569 24.149668 54.995724 -5.000772 -0.001745 2.999194 -0.003497 -1.002185 -65.398293 -60.003117 30.011080 134.993393 -0.000002 0.000001 20.996786 0.000000 0.000000 
7.998947 1.995800 6.152350 -164.020111 73.996956 -0.011211 83.998894 0.000000 0.000000 19.998165 0.000000 0.000000 30.999151 0.000000 0.000000 -35.000443 0.000000 0.000000 0.000000 0.000000 0.000000 104.384666 -87.989586 -150.387848 -146.009567 5.002225 -20.002825 47.998577 6.999033 29.996231 17.997807 8.999632 0.999454 72.997787 54.001503 29.996616 -6.926577 4.999315 0.997342 40.998127 -20.001020 0.996610 20.337841 11.489717 24.577772 53.996761 -5.000774 -0.001527 2.999194 -0.003497 -1.002185 -65.704910 -60.002441 30.009996 134.993393 -0.000002 0.000001 20.996786 0.000000 0.000000 
7.998947 1.995800 5.998467 -164.020111 73.996956 -0.011211 83.998894 0.000000 0.000000 19.998167 0.000000 0.000000 30.999151 0.000000 0.000000 -35.000443 0.000000 0.000000 0.000000 0.000000 0.000000 104.384666 -87.989586 -150.387848 -146.009567 5.002225 -20.002825 47.998577 6.999033 29.996231 17.997805 8.999632 0.999454 72.997787 54.001503 29.996616 -8.001484 4.999516 0.997301 40.998127 -20.001020 0.996610 20.998718 10.997356 24.999083 52.998623 -5.000772 -0.001309 2.999194 -0.003497 -1.002185 -66.011513 -60.001785 30.008915 134.993393 -0.000002 0.000001 20.996786 0.000000 0.000000 
7.998947 1.995800 6.141359 -164.020111 73.996956 -0.011211 83.998894 0.000000 0.000000 19.998167 0.000000 0.000000 30.999151 0.000000 0.000000 -35.000443 0.000000 0.000000 0.000000 0.000000 0.000000 104.384666 -87.989586 -150.387848 -146.009583 5.002226 -20.002827 47.998577 6.999033 29.996231 17.997807 8.999632 0.999454 72.997787 54.001511 29.996616 -7.003394 4.999329 0.997339 40.998127 -20.001020 0.996610 20.385220 11.454696 24.608088 53.925438 -5.000774 -0.001512 2.999194 -0.003497 -1.002185 -65.745789 -60.002354 30.009853 134.993393 -0.000002 0.000001 20.996786 0.000000 0.000000 
7.998947 1.995800 6.284250 -164.020111 73.996956 -0.011211 83.998894 0.000000 0.000000 19.998167 0.000000 0.000000 30.999151 0.000000 0.000000 -35.000443 0.000000 0.000000 0.000000 0.000000 0.000000 104.384666 -87.989586 -150.387848 -146.009567 5.002225 -20.002825 47.998577 6.999033 29.996231 17.997807 8.999632 0.999454 72.997787 54.001511 29.996616 -6.004391 4.999143 0.997381 40.998127 -20.001020 0.996610 19.767176 11.908158 24.211241 54.852974 -5.000772 -0.001714 2.999194 -0.003497 -1.002185 -65.480034 -60.002911 30.010778 134.993393 -0.000002 0.000001 20.996786 0.000000 0.000000 
7.998947 1.995800 6.427142 -164.020111 73.996956 -0.011211 83.998894 0.000000 0.000000 19.998167 0.000000 0.000000 30.999151 0.000000 0.000000 -35.000443 0.000000 0.000000 0.000000 0.000000 0.000000 104.384666 -87.989586 -150.387848 -146.009567 5.002225 -20.002825 47.998577 6.999033 29.996231 17.997807 8.999632 0.999454 72.997787 54.001511 29.996616 -5.004627 4.998958 0.997425 40.998127 -20.001020 0.996610 19.144581 12.357612 23.808538 55.781116 -5.000768 -0.001917 2.999194 -0.003497 -1.002185 -65.214310 -60.003521 30.011728 134.993393 -0.000002 0.000001 20.996786 0.000000 0.000000 
